<mxfile host="app.diagrams.net" modified="2023-03-01T17:40:52.107Z" agent="5.0 (Macintosh)" etag="-taPwan7aT2iCmR-K6UV" version="20.8.20" type="github">
  <diagram name="Page-1" id="hLuPmDGO4PXkCt97cyZo">
    <mxGraphModel dx="2370" dy="1446" grid="0" gridSize="10" guides="1" tooltips="1" connect="1" arrows="1" fold="1" page="1" pageScale="1" pageWidth="827" pageHeight="1169" background="#FFFFFF" math="0" shadow="0">
      <root>
        <mxCell id="0" />
        <mxCell id="1" parent="0" />
        <mxCell id="O7RyFbMv_qGXEK2Rhbus-43" style="rounded=0;orthogonalLoop=1;jettySize=auto;html=1;exitX=0;exitY=0.5;exitDx=0;exitDy=0;entryX=1.007;entryY=0.578;entryDx=0;entryDy=0;entryPerimeter=0;labelBackgroundColor=none;fontColor=default;" parent="1" source="O7RyFbMv_qGXEK2Rhbus-1" target="O7RyFbMv_qGXEK2Rhbus-2" edge="1">
          <mxGeometry relative="1" as="geometry" />
        </mxCell>
        <mxCell id="O7RyFbMv_qGXEK2Rhbus-44" style="edgeStyle=orthogonalEdgeStyle;rounded=0;orthogonalLoop=1;jettySize=auto;html=1;exitX=1;exitY=0.5;exitDx=0;exitDy=0;entryX=0;entryY=0.5;entryDx=0;entryDy=0;labelBackgroundColor=none;fontColor=default;" parent="1" source="O7RyFbMv_qGXEK2Rhbus-1" target="O7RyFbMv_qGXEK2Rhbus-10" edge="1">
          <mxGeometry relative="1" as="geometry" />
        </mxCell>
        <mxCell id="O7RyFbMv_qGXEK2Rhbus-52" style="edgeStyle=none;rounded=0;orthogonalLoop=1;jettySize=auto;html=1;exitX=0.25;exitY=1;exitDx=0;exitDy=0;entryX=0.5;entryY=0;entryDx=0;entryDy=0;strokeColor=default;" parent="1" source="O7RyFbMv_qGXEK2Rhbus-1" target="O7RyFbMv_qGXEK2Rhbus-45" edge="1">
          <mxGeometry relative="1" as="geometry" />
        </mxCell>
        <mxCell id="O7RyFbMv_qGXEK2Rhbus-1" value="Masters" style="rounded=1;whiteSpace=wrap;html=1;strokeWidth=4;labelBackgroundColor=none;fillColor=#e1d5e7;strokeColor=#9673a6;" parent="1" vertex="1">
          <mxGeometry x="517" y="268" width="120" height="60" as="geometry" />
        </mxCell>
        <mxCell id="O7RyFbMv_qGXEK2Rhbus-19" style="edgeStyle=orthogonalEdgeStyle;rounded=0;orthogonalLoop=1;jettySize=auto;html=1;exitX=0.25;exitY=0;exitDx=0;exitDy=0;entryX=0.75;entryY=1;entryDx=0;entryDy=0;labelBackgroundColor=none;fontColor=default;" parent="1" source="O7RyFbMv_qGXEK2Rhbus-2" target="O7RyFbMv_qGXEK2Rhbus-18" edge="1">
          <mxGeometry relative="1" as="geometry" />
        </mxCell>
        <mxCell id="O7RyFbMv_qGXEK2Rhbus-25" style="edgeStyle=orthogonalEdgeStyle;rounded=0;orthogonalLoop=1;jettySize=auto;html=1;exitX=0.25;exitY=1;exitDx=0;exitDy=0;entryX=0.25;entryY=0;entryDx=0;entryDy=0;labelBackgroundColor=none;fontColor=default;" parent="1" source="O7RyFbMv_qGXEK2Rhbus-2" target="O7RyFbMv_qGXEK2Rhbus-14" edge="1">
          <mxGeometry relative="1" as="geometry" />
        </mxCell>
        <mxCell id="O7RyFbMv_qGXEK2Rhbus-28" style="edgeStyle=orthogonalEdgeStyle;rounded=0;orthogonalLoop=1;jettySize=auto;html=1;exitX=0;exitY=0.5;exitDx=0;exitDy=0;entryX=1;entryY=0.5;entryDx=0;entryDy=0;labelBackgroundColor=none;fontColor=default;" parent="1" source="O7RyFbMv_qGXEK2Rhbus-2" target="O7RyFbMv_qGXEK2Rhbus-13" edge="1">
          <mxGeometry relative="1" as="geometry" />
        </mxCell>
        <mxCell id="O7RyFbMv_qGXEK2Rhbus-2" value="&lt;div&gt;Kat+Pete&lt;/div&gt;" style="rounded=1;whiteSpace=wrap;html=1;labelBackgroundColor=none;" parent="1" vertex="1">
          <mxGeometry x="296" y="266" width="120" height="60" as="geometry" />
        </mxCell>
        <mxCell id="O7RyFbMv_qGXEK2Rhbus-3" value="BitDecomp" style="rounded=1;whiteSpace=wrap;html=1;labelBackgroundColor=none;fillColor=#fff2cc;strokeColor=#d6b656;" parent="1" vertex="1">
          <mxGeometry x="990" y="444" width="120" height="60" as="geometry" />
        </mxCell>
        <mxCell id="O7RyFbMv_qGXEK2Rhbus-4" value="BitNeg" style="rounded=1;whiteSpace=wrap;html=1;labelBackgroundColor=none;fillColor=#fff2cc;strokeColor=#d6b656;" parent="1" vertex="1">
          <mxGeometry x="990" y="369" width="120" height="60" as="geometry" />
        </mxCell>
        <mxCell id="O7RyFbMv_qGXEK2Rhbus-5" value="BitAdd" style="rounded=1;whiteSpace=wrap;html=1;labelBackgroundColor=none;fillColor=#fff2cc;strokeColor=#d6b656;" parent="1" vertex="1">
          <mxGeometry x="990" y="294" width="120" height="60" as="geometry" />
        </mxCell>
        <mxCell id="O7RyFbMv_qGXEK2Rhbus-41" style="edgeStyle=orthogonalEdgeStyle;rounded=0;orthogonalLoop=1;jettySize=auto;html=1;exitX=1;exitY=0.5;exitDx=0;exitDy=0;entryX=0.5;entryY=0;entryDx=0;entryDy=0;labelBackgroundColor=none;fontColor=default;fillColor=#fff2cc;strokeColor=#d6b656;" parent="1" source="O7RyFbMv_qGXEK2Rhbus-6" target="O7RyFbMv_qGXEK2Rhbus-30" edge="1">
          <mxGeometry relative="1" as="geometry" />
        </mxCell>
        <mxCell id="O7RyFbMv_qGXEK2Rhbus-6" value="Figur 17" style="rounded=1;whiteSpace=wrap;html=1;labelBackgroundColor=none;fillColor=#fff2cc;strokeColor=#d6b656;" parent="1" vertex="1">
          <mxGeometry x="990" y="219" width="120" height="60" as="geometry" />
        </mxCell>
        <mxCell id="O7RyFbMv_qGXEK2Rhbus-7" value="Distributed keygen" style="rounded=1;whiteSpace=wrap;html=1;labelBackgroundColor=none;fillColor=#fff2cc;strokeColor=#d6b656;" parent="1" vertex="1">
          <mxGeometry x="990" y="148" width="120" height="60" as="geometry" />
        </mxCell>
        <mxCell id="O7RyFbMv_qGXEK2Rhbus-8" value="Hybrid 2" style="rounded=1;whiteSpace=wrap;html=1;labelBackgroundColor=none;fillColor=#fff2cc;strokeColor=#d6b656;" parent="1" vertex="1">
          <mxGeometry x="886" y="74" width="120" height="60" as="geometry" />
        </mxCell>
        <mxCell id="O7RyFbMv_qGXEK2Rhbus-9" value="Hybrid 1" style="rounded=1;whiteSpace=wrap;html=1;labelBackgroundColor=none;fillColor=#fff2cc;strokeColor=#d6b656;" parent="1" vertex="1">
          <mxGeometry x="738" y="74" width="120" height="60" as="geometry" />
        </mxCell>
        <mxCell id="O7RyFbMv_qGXEK2Rhbus-32" style="edgeStyle=orthogonalEdgeStyle;rounded=0;orthogonalLoop=1;jettySize=auto;html=1;exitX=0.25;exitY=0;exitDx=0;exitDy=0;entryX=0.25;entryY=1;entryDx=0;entryDy=0;labelBackgroundColor=none;fontColor=default;fillColor=#fff2cc;strokeColor=#d6b656;" parent="1" source="O7RyFbMv_qGXEK2Rhbus-10" target="O7RyFbMv_qGXEK2Rhbus-9" edge="1">
          <mxGeometry relative="1" as="geometry" />
        </mxCell>
        <mxCell id="O7RyFbMv_qGXEK2Rhbus-33" style="rounded=0;orthogonalLoop=1;jettySize=auto;html=1;exitX=0.5;exitY=0;exitDx=0;exitDy=0;entryX=0.25;entryY=1;entryDx=0;entryDy=0;labelBackgroundColor=none;fontColor=default;fillColor=#fff2cc;strokeColor=#d6b656;" parent="1" source="O7RyFbMv_qGXEK2Rhbus-10" target="O7RyFbMv_qGXEK2Rhbus-8" edge="1">
          <mxGeometry relative="1" as="geometry" />
        </mxCell>
        <mxCell id="O7RyFbMv_qGXEK2Rhbus-35" style="rounded=0;orthogonalLoop=1;jettySize=auto;html=1;exitX=0.75;exitY=0;exitDx=0;exitDy=0;entryX=0;entryY=0.75;entryDx=0;entryDy=0;labelBackgroundColor=none;fontColor=default;strokeColor=#d6b656;fillColor=#fff2cc;" parent="1" source="O7RyFbMv_qGXEK2Rhbus-10" target="O7RyFbMv_qGXEK2Rhbus-7" edge="1">
          <mxGeometry relative="1" as="geometry" />
        </mxCell>
        <mxCell id="O7RyFbMv_qGXEK2Rhbus-36" style="rounded=0;orthogonalLoop=1;jettySize=auto;html=1;exitX=1;exitY=0.25;exitDx=0;exitDy=0;entryX=0;entryY=0.5;entryDx=0;entryDy=0;labelBackgroundColor=none;fontColor=default;fillColor=#fff2cc;strokeColor=#d6b656;" parent="1" source="O7RyFbMv_qGXEK2Rhbus-10" target="O7RyFbMv_qGXEK2Rhbus-6" edge="1">
          <mxGeometry relative="1" as="geometry" />
        </mxCell>
        <mxCell id="O7RyFbMv_qGXEK2Rhbus-37" style="rounded=0;orthogonalLoop=1;jettySize=auto;html=1;exitX=1;exitY=0.5;exitDx=0;exitDy=0;entryX=0;entryY=0.5;entryDx=0;entryDy=0;labelBackgroundColor=none;fontColor=default;fillColor=#fff2cc;strokeColor=#d6b656;" parent="1" source="O7RyFbMv_qGXEK2Rhbus-10" target="O7RyFbMv_qGXEK2Rhbus-5" edge="1">
          <mxGeometry relative="1" as="geometry" />
        </mxCell>
        <mxCell id="O7RyFbMv_qGXEK2Rhbus-38" style="rounded=0;orthogonalLoop=1;jettySize=auto;html=1;exitX=1;exitY=0.75;exitDx=0;exitDy=0;entryX=0;entryY=0.5;entryDx=0;entryDy=0;labelBackgroundColor=none;fontColor=default;fillColor=#fff2cc;strokeColor=#d6b656;" parent="1" source="O7RyFbMv_qGXEK2Rhbus-10" target="O7RyFbMv_qGXEK2Rhbus-4" edge="1">
          <mxGeometry relative="1" as="geometry" />
        </mxCell>
        <mxCell id="O7RyFbMv_qGXEK2Rhbus-39" style="rounded=0;orthogonalLoop=1;jettySize=auto;html=1;exitX=0.75;exitY=1;exitDx=0;exitDy=0;entryX=0;entryY=0.5;entryDx=0;entryDy=0;labelBackgroundColor=none;fontColor=default;fillColor=#fff2cc;strokeColor=#d6b656;" parent="1" source="O7RyFbMv_qGXEK2Rhbus-10" target="O7RyFbMv_qGXEK2Rhbus-3" edge="1">
          <mxGeometry relative="1" as="geometry" />
        </mxCell>
        <mxCell id="O7RyFbMv_qGXEK2Rhbus-40" style="rounded=0;orthogonalLoop=1;jettySize=auto;html=1;exitX=0.5;exitY=1;exitDx=0;exitDy=0;entryX=0;entryY=0.5;entryDx=0;entryDy=0;labelBackgroundColor=none;fontColor=default;fillColor=#fff2cc;strokeColor=#d6b656;" parent="1" source="O7RyFbMv_qGXEK2Rhbus-10" target="O7RyFbMv_qGXEK2Rhbus-29" edge="1">
          <mxGeometry relative="1" as="geometry" />
        </mxCell>
        <mxCell id="O7RyFbMv_qGXEK2Rhbus-10" value="&lt;div&gt;Gladius&lt;/div&gt;" style="rounded=1;whiteSpace=wrap;html=1;labelBackgroundColor=none;fillColor=#fff2cc;strokeColor=#d6b656;" parent="1" vertex="1">
          <mxGeometry x="738" y="268" width="120" height="60" as="geometry" />
        </mxCell>
        <mxCell id="O7RyFbMv_qGXEK2Rhbus-11" value="Kat + Pete params generation" style="rounded=1;whiteSpace=wrap;html=1;labelBackgroundColor=none;fillColor=#fff2cc;strokeColor=#d6b656;" parent="1" vertex="1">
          <mxGeometry x="-17" y="352" width="120" height="60" as="geometry" />
        </mxCell>
        <mxCell id="O7RyFbMv_qGXEK2Rhbus-12" value="Kyber params generation" style="rounded=1;whiteSpace=wrap;html=1;labelBackgroundColor=none;fillColor=#fff2cc;strokeColor=#d6b656;" parent="1" vertex="1">
          <mxGeometry x="132" y="352" width="120" height="60" as="geometry" />
        </mxCell>
        <mxCell id="O7RyFbMv_qGXEK2Rhbus-26" style="edgeStyle=orthogonalEdgeStyle;rounded=0;orthogonalLoop=1;jettySize=auto;html=1;exitX=0.5;exitY=1;exitDx=0;exitDy=0;entryX=0.5;entryY=0;entryDx=0;entryDy=0;labelBackgroundColor=none;fontColor=default;" parent="1" source="O7RyFbMv_qGXEK2Rhbus-13" target="O7RyFbMv_qGXEK2Rhbus-12" edge="1">
          <mxGeometry relative="1" as="geometry" />
        </mxCell>
        <mxCell id="O7RyFbMv_qGXEK2Rhbus-27" style="edgeStyle=orthogonalEdgeStyle;rounded=0;orthogonalLoop=1;jettySize=auto;html=1;exitX=0;exitY=0.75;exitDx=0;exitDy=0;entryX=0.5;entryY=0;entryDx=0;entryDy=0;labelBackgroundColor=none;fontColor=default;" parent="1" source="O7RyFbMv_qGXEK2Rhbus-13" target="O7RyFbMv_qGXEK2Rhbus-11" edge="1">
          <mxGeometry relative="1" as="geometry" />
        </mxCell>
        <mxCell id="O7RyFbMv_qGXEK2Rhbus-13" value="Params" style="rounded=1;whiteSpace=wrap;html=1;labelBackgroundColor=none;fillColor=#fff2cc;strokeColor=#d6b656;" parent="1" vertex="1">
          <mxGeometry x="132" y="266" width="120" height="60" as="geometry" />
        </mxCell>
        <mxCell id="O7RyFbMv_qGXEK2Rhbus-14" value="Distributed decrypt" style="rounded=1;whiteSpace=wrap;html=1;labelBackgroundColor=none;fillColor=#d5e8d4;strokeColor=#82b366;" parent="1" vertex="1">
          <mxGeometry x="296" y="354" width="120" height="60" as="geometry" />
        </mxCell>
        <mxCell id="O7RyFbMv_qGXEK2Rhbus-15" value="Replicated" style="rounded=1;whiteSpace=wrap;html=1;labelBackgroundColor=none;fillColor=#d5e8d4;strokeColor=#82b366;" parent="1" vertex="1">
          <mxGeometry x="372" y="74" width="120" height="60" as="geometry" />
        </mxCell>
        <mxCell id="O7RyFbMv_qGXEK2Rhbus-16" value="Naive" style="rounded=1;whiteSpace=wrap;html=1;labelBackgroundColor=none;fillColor=#d5e8d4;strokeColor=#82b366;" parent="1" vertex="1">
          <mxGeometry x="236" y="74" width="120" height="60" as="geometry" />
        </mxCell>
        <mxCell id="O7RyFbMv_qGXEK2Rhbus-17" value="Additive" style="rounded=1;whiteSpace=wrap;html=1;labelBackgroundColor=none;fillColor=#d5e8d4;strokeColor=#82b366;" parent="1" vertex="1">
          <mxGeometry x="100" y="74" width="120" height="60" as="geometry" />
        </mxCell>
        <mxCell id="O7RyFbMv_qGXEK2Rhbus-20" style="edgeStyle=orthogonalEdgeStyle;rounded=0;orthogonalLoop=1;jettySize=auto;html=1;exitX=0.5;exitY=0;exitDx=0;exitDy=0;labelBackgroundColor=none;fontColor=default;fillColor=#d5e8d4;strokeColor=#82b366;" parent="1" source="O7RyFbMv_qGXEK2Rhbus-18" target="O7RyFbMv_qGXEK2Rhbus-16" edge="1">
          <mxGeometry relative="1" as="geometry" />
        </mxCell>
        <mxCell id="O7RyFbMv_qGXEK2Rhbus-21" style="rounded=0;orthogonalLoop=1;jettySize=auto;html=1;exitX=0.75;exitY=0;exitDx=0;exitDy=0;labelBackgroundColor=none;fontColor=default;fillColor=#d5e8d4;strokeColor=#82b366;" parent="1" source="O7RyFbMv_qGXEK2Rhbus-18" target="O7RyFbMv_qGXEK2Rhbus-15" edge="1">
          <mxGeometry relative="1" as="geometry" />
        </mxCell>
        <mxCell id="O7RyFbMv_qGXEK2Rhbus-23" style="rounded=0;orthogonalLoop=1;jettySize=auto;html=1;exitX=0.25;exitY=0;exitDx=0;exitDy=0;entryX=0.75;entryY=1;entryDx=0;entryDy=0;labelBackgroundColor=none;fontColor=default;fillColor=#d5e8d4;strokeColor=#82b366;" parent="1" source="O7RyFbMv_qGXEK2Rhbus-18" target="O7RyFbMv_qGXEK2Rhbus-17" edge="1">
          <mxGeometry relative="1" as="geometry" />
        </mxCell>
        <mxCell id="O7RyFbMv_qGXEK2Rhbus-18" value="&lt;div&gt;Secret sharing&lt;/div&gt;" style="rounded=1;whiteSpace=wrap;html=1;labelBackgroundColor=none;fillColor=#d5e8d4;strokeColor=#82b366;" parent="1" vertex="1">
          <mxGeometry x="236" y="156" width="120" height="60" as="geometry" />
        </mxCell>
        <mxCell id="O7RyFbMv_qGXEK2Rhbus-29" value="BitLessThan" style="rounded=1;whiteSpace=wrap;html=1;labelBackgroundColor=none;fillColor=#fff2cc;strokeColor=#d6b656;" parent="1" vertex="1">
          <mxGeometry x="990" y="519" width="120" height="60" as="geometry" />
        </mxCell>
        <mxCell id="O7RyFbMv_qGXEK2Rhbus-42" style="edgeStyle=orthogonalEdgeStyle;rounded=0;orthogonalLoop=1;jettySize=auto;html=1;exitX=0.5;exitY=1;exitDx=0;exitDy=0;entryX=0.5;entryY=0;entryDx=0;entryDy=0;labelBackgroundColor=none;fontColor=default;fillColor=#fff2cc;strokeColor=#d6b656;" parent="1" source="O7RyFbMv_qGXEK2Rhbus-30" target="O7RyFbMv_qGXEK2Rhbus-31" edge="1">
          <mxGeometry relative="1" as="geometry" />
        </mxCell>
        <mxCell id="O7RyFbMv_qGXEK2Rhbus-30" value="Center" style="rounded=1;whiteSpace=wrap;html=1;labelBackgroundColor=none;fillColor=#fff2cc;strokeColor=#d6b656;" parent="1" vertex="1">
          <mxGeometry x="1152" y="294" width="120" height="60" as="geometry" />
        </mxCell>
        <mxCell id="O7RyFbMv_qGXEK2Rhbus-31" value="Simplification with kyber" style="rounded=1;whiteSpace=wrap;html=1;labelBackgroundColor=none;fillColor=#fff2cc;strokeColor=#d6b656;" parent="1" vertex="1">
          <mxGeometry x="1152" y="373" width="120" height="60" as="geometry" />
        </mxCell>
        <mxCell id="O7RyFbMv_qGXEK2Rhbus-48" style="edgeStyle=orthogonalEdgeStyle;rounded=0;orthogonalLoop=1;jettySize=auto;html=1;exitX=0.25;exitY=1;exitDx=0;exitDy=0;entryX=0.25;entryY=0;entryDx=0;entryDy=0;labelBackgroundColor=none;fontColor=default;" parent="1" source="O7RyFbMv_qGXEK2Rhbus-45" target="O7RyFbMv_qGXEK2Rhbus-46" edge="1">
          <mxGeometry relative="1" as="geometry" />
        </mxCell>
        <mxCell id="O7RyFbMv_qGXEK2Rhbus-49" style="edgeStyle=orthogonalEdgeStyle;rounded=0;orthogonalLoop=1;jettySize=auto;html=1;exitX=1;exitY=0.25;exitDx=0;exitDy=0;entryX=0;entryY=0.25;entryDx=0;entryDy=0;labelBackgroundColor=none;fontColor=default;" parent="1" source="O7RyFbMv_qGXEK2Rhbus-45" target="O7RyFbMv_qGXEK2Rhbus-47" edge="1">
          <mxGeometry relative="1" as="geometry" />
        </mxCell>
        <mxCell id="O7RyFbMv_qGXEK2Rhbus-51" style="edgeStyle=orthogonalEdgeStyle;orthogonalLoop=1;jettySize=auto;html=1;exitX=1;exitY=1;exitDx=0;exitDy=0;entryX=0;entryY=0;entryDx=0;entryDy=0;rounded=1;labelBackgroundColor=none;fontColor=default;" parent="1" source="O7RyFbMv_qGXEK2Rhbus-45" target="O7RyFbMv_qGXEK2Rhbus-50" edge="1">
          <mxGeometry relative="1" as="geometry" />
        </mxCell>
        <mxCell id="O7RyFbMv_qGXEK2Rhbus-45" value="Circuit" style="rounded=1;whiteSpace=wrap;html=1;strokeWidth=1;labelBackgroundColor=none;" parent="1" vertex="1">
          <mxGeometry x="447" y="394" width="120" height="60" as="geometry" />
        </mxCell>
        <mxCell id="O7RyFbMv_qGXEK2Rhbus-46" value="TestVectors" style="rounded=1;whiteSpace=wrap;html=1;strokeWidth=1;labelBackgroundColor=none;fillColor=#d5e8d4;strokeColor=#82b366;" parent="1" vertex="1">
          <mxGeometry x="447" y="484" width="120" height="60" as="geometry" />
        </mxCell>
        <mxCell id="O7RyFbMv_qGXEK2Rhbus-47" value="MP-SPDZ" style="rounded=1;whiteSpace=wrap;html=1;strokeWidth=1;labelBackgroundColor=none;fillColor=#dae8fc;strokeColor=#6c8ebf;" parent="1" vertex="1">
          <mxGeometry x="618" y="394" width="120" height="60" as="geometry" />
        </mxCell>
        <mxCell id="O7RyFbMv_qGXEK2Rhbus-50" value="Scala-mamba" style="rounded=1;whiteSpace=wrap;html=1;strokeWidth=1;labelBackgroundColor=none;fillColor=#f8cecc;strokeColor=#b85450;" parent="1" vertex="1">
          <mxGeometry x="602" y="479" width="120" height="60" as="geometry" />
        </mxCell>
      </root>
    </mxGraphModel>
  </diagram>
</mxfile>
